<svg width="18" height="18" viewBox="0 0 18 18" fill="white" xmlns="http://www.w3.org/2000/svg">
<path d="M8.99219 0.489625C4.16211 0.487672 0.25 4.39783 0.25 9.224C0.25 13.0404 2.69727 16.2845 6.10547 17.476C6.56445 17.5912 6.49414 17.265 6.49414 17.0424V15.5287C3.84375 15.8392 3.73633 14.0853 3.55859 13.7924C3.19922 13.1791 2.34961 13.0228 2.60352 12.7299C3.20703 12.4193 3.82227 12.808 4.53516 13.8607C5.05078 14.6244 6.05664 14.4955 6.56641 14.3685C6.67773 13.9095 6.91602 13.4994 7.24414 13.181C4.49805 12.6888 3.35352 11.0131 3.35352 9.02087C3.35352 8.05408 3.67188 7.16541 4.29688 6.44861C3.89844 5.26697 4.33398 4.25525 4.39258 4.10486C5.52734 4.0033 6.70703 4.91736 6.79883 4.98963C7.44336 4.8158 8.17969 4.724 9.00391 4.724C9.83203 4.724 10.5703 4.8197 11.2207 4.99548C11.4414 4.82752 12.5352 4.04236 13.5898 4.13806C13.6465 4.28845 14.0723 5.27673 13.6973 6.44275C14.3301 7.1615 14.6523 8.05799 14.6523 9.02674C14.6523 11.0228 13.5 12.7006 10.7461 13.1849C10.982 13.4169 11.1693 13.6936 11.297 13.9987C11.4248 14.3039 11.4905 14.6314 11.4902 14.9623V17.1595C11.5059 17.3353 11.4902 17.5092 11.7832 17.5092C15.2422 16.3431 17.7324 13.0756 17.7324 9.22595C17.7324 4.39783 13.8184 0.489625 8.99219 0.489625Z" fill="#ffffff"/>
</svg>
