<svg width="20" height="20" viewBox="0 0 20 20" fill="white" xmlns="http://www.w3.org/2000/svg">
<path d="M9.24188 9.16324C9.24188 9.70359 8.9587 10.1778 8.53264 10.4456C7.60027 10.8833 6.96825 10.2083 6.97856 9.66725C6.97856 8.87553 7.54058 8.71259 7.72814 8.71259C8.02916 8.71259 8.08458 8.49417 8.08458 8.35362C8.08458 8.21306 7.94258 7.92322 7.5774 7.92324C6.79518 7.92324 6.23531 8.63297 6.19545 9.19687C6.19467 9.17731 6.19429 9.15766 6.19429 9.13794C6.19429 8.34545 6.89251 7.64974 7.72839 7.64974C8.56426 7.64974 9.24188 8.32736 9.24188 9.16324Z" fill="white"/>
<path d="M13.7883 9.16324C13.7883 9.70359 13.5051 10.1778 13.0791 10.4456C12.1467 10.8833 11.5147 10.2083 11.525 9.66725C11.525 8.87553 12.087 8.71259 12.2746 8.71259C12.5756 8.71259 12.631 8.49417 12.631 8.35362C12.631 8.21306 12.489 7.92322 12.1238 7.92324C11.3416 7.92324 10.7818 8.63297 10.7419 9.19687L10.7412 9.1758L10.7409 9.16194L10.7408 9.15014L10.7408 9.14409L10.7407 9.13794C10.7407 8.34545 11.439 7.64974 12.2748 7.64974C13.1107 7.64974 13.7883 8.32736 13.7883 9.16324Z" fill="white"/>
<path d="M7.22358 12.0672C9.06263 13.4845 11.5231 13.1629 12.766 12.0724L12.9398 12.247C11.2505 14.4037 8.38562 13.9983 7.04592 12.247L7.22358 12.0672Z" fill="white"/>
<path fill-rule="evenodd" clip-rule="evenodd" d="M10.3468 3.33184C10.3443 2.87345 10.2019 0.588921 10.2019 0.588921C10.2019 0.588921 10.2123 0.246216 9.99865 0.246216C9.78498 0.246216 9.7954 0.588921 9.7954 0.588921L9.6313 3.33026C6.86959 3.47687 4.41452 5.38257 3.53615 8.01772L3.51154 8.00107C2.67061 7.92441 1.79973 8.5994 1.51889 9.40652C1.2439 10.1968 1.31239 11.2844 2.1665 12.0642C2.75251 12.5992 3.1936 12.5961 3.66283 12.5767L3.67153 12.5703C4.44634 14.4538 6.09304 15.8911 8.10285 16.4562V16.7165C7.77198 16.7466 6.05001 16.9371 5.16605 17.7076C5.16605 17.7076 6.60606 19.7537 9.97308 19.7537C13.3401 19.7537 14.7987 17.6962 14.7987 17.6962C13.9093 16.9611 12.3618 16.7661 11.8932 16.7228V16.4615C13.9041 15.9012 15.5441 14.4649 16.3319 12.5728L16.3372 12.5767C16.8064 12.5961 17.2475 12.5992 17.8335 12.0642C18.6876 11.2844 18.7561 10.1968 18.4811 9.40652C18.2025 8.6058 17.3432 7.93511 16.5085 7.99939C15.6281 5.37516 13.1001 3.48935 10.3468 3.33184ZM15.8665 12.2278C14.9637 14.5462 12.6757 16.1578 10.007 16.1578C7.33312 16.1578 5.02279 14.534 4.13774 12.2243C4.66343 11.7797 4.92767 11.1654 4.92767 10.3088C4.92767 9.42488 4.5499 8.70582 4.01979 8.34491C4.61073 6.40869 6.12494 4.87806 7.98 4.22475C7.9564 4.2647 7.91801 4.3563 7.91801 4.52948C7.91801 4.77948 8.29801 5.83948 9.99801 5.83948C11.698 5.83948 12.118 4.81948 12.118 4.51948C12.118 4.3737 12.092 4.29403 12.0653 4.25065C13.9117 4.915 15.4368 6.42045 16.0215 8.31713L16.0015 8.33068C15.4603 8.6867 15.0724 9.4131 15.0724 10.3088C15.0724 11.1677 15.338 11.783 15.8665 12.2278ZM2.83582 8.86609C2.70746 8.89235 2.08052 9.40816 2.08052 10.2682C2.08052 11.1283 2.70784 11.6592 2.85706 11.6817C2.46023 10.8296 2.46056 9.62131 2.83582 8.86609ZM17.1642 8.86609C17.2926 8.89235 17.9195 9.40816 17.9195 10.2682C17.9195 11.1283 17.2922 11.6592 17.143 11.6817C17.5398 10.8296 17.5395 9.62131 17.1642 8.86609ZM8.64088 4.45873L8.71922 4.39287C8.72795 4.38552 8.73231 4.38186 8.73674 4.38249C8.74117 4.38313 8.74441 4.38801 8.75091 4.3978C8.81534 4.49497 9.13512 4.89977 9.9909 4.89977C10.8582 4.89977 11.2302 4.48558 11.3006 4.39592C11.3014 4.39479 11.3023 4.39374 11.303 4.39277C11.3054 4.38985 11.3072 4.38764 11.309 4.3861C11.3107 4.38451 11.3123 4.38362 11.3141 4.3834C11.3167 4.3831 11.3192 4.3842 11.3227 4.38662C11.3248 4.38805 11.3272 4.38996 11.3302 4.3923L11.4044 4.45077C11.4163 4.46014 11.4249 4.46691 11.4307 4.47351C11.4327 4.47579 11.4343 4.47804 11.4357 4.48038C11.4375 4.48343 11.4387 4.48663 11.4395 4.49019C11.4425 4.50434 11.4368 4.51509 11.4255 4.53658C11.3447 4.69009 11.0235 5.13791 10.0275 5.13791C9.03022 5.13791 8.70412 4.69496 8.62195 4.54403C8.61054 4.52308 8.60484 4.5126 8.60749 4.49859C8.61013 4.48457 8.62038 4.47595 8.64088 4.45873ZM11.8932 17.2098C11.8932 18.2174 8.10285 18.2548 8.10285 17.2204V17.1323C7.46482 17.2789 7.05952 17.4983 7.05952 17.7434C7.05952 18.1848 8.37269 18.5425 9.99257 18.5425C11.6125 18.5425 12.9256 18.1848 12.9256 17.7434C12.9256 17.4997 12.5249 17.2814 11.8932 17.1348V17.2098Z" fill="white"/>
</svg>
