<svg width="40" height="40" viewBox="0 0 40 40" fill="none" xmlns="http://www.w3.org/2000/svg">
<g id="Predict">
<path id="Black" d="M35.5519 33.5178L21.1127 39.2264L21.1127 39.2264C20.4303 39.4961 20.0891 39.631 19.7314 39.63C19.3736 39.6291 19.0332 39.4924 18.3523 39.2189L4.14649 33.5142C2.38007 32.8049 1.49686 32.4502 1.48853 31.8292C1.4802 31.2081 2.35358 30.8299 4.10034 30.0734L18.2607 23.9409C18.9855 23.6271 19.3479 23.4701 19.7315 23.469C20.1151 23.468 20.4783 23.6228 21.2049 23.9326L35.5977 30.0691C37.3726 30.8258 38.26 31.2042 38.2517 31.8289C38.2434 32.4537 37.3463 32.8084 35.5519 33.5178Z" stroke="white" stroke-width="0.310724"/>
<path id="Flattened" d="M38.4056 31.7913L38.407 31.7907V30.5424L21.0086 23.8285C20.3374 23.5695 20.0018 23.44 19.6507 23.4414C19.2996 23.4428 18.965 23.575 18.2959 23.8395L1.33386 30.5424V31.7907L1.34567 31.7959C1.34525 31.8069 1.34511 31.818 1.34526 31.8291C1.35357 32.4522 2.24419 32.8069 4.02544 33.5163L18.3666 39.2276C19.0428 39.4968 19.3809 39.6315 19.7359 39.6324C20.0909 39.6334 20.4296 39.5005 21.1072 39.2349L35.684 33.5198C37.4933 32.8104 38.398 32.4557 38.4062 31.8289C38.4064 31.8163 38.4062 31.8038 38.4056 31.7913Z" fill="#7E22ED"/>
<path id="Flattened_2" d="M38.4056 30.5484L38.4059 30.5478L38.3296 29.2995L21.0086 22.5856C20.3374 22.3266 20.0018 22.1971 19.6507 22.1985C19.2996 22.1999 18.965 22.3321 18.2959 22.5965L1.40959 29.2995L1.33386 30.5478L1.34567 30.553C1.34525 30.564 1.34511 30.5751 1.34526 30.5862C1.35357 31.2093 2.24419 31.564 4.02544 32.2733L18.3666 37.9846C19.0428 38.2539 19.3809 38.3885 19.7359 38.3895C20.0909 38.3904 20.4296 38.2576 21.1072 37.992L35.684 32.2768C37.4933 31.5675 38.398 31.2128 38.4062 30.586C38.4064 30.5734 38.4062 30.5608 38.4056 30.5484Z" fill="#2DFF9F"/>
<path id="Black_2" d="M35.5519 31.0322L21.1127 36.7408L21.1127 36.7408C20.4303 37.0105 20.0891 37.1454 19.7314 37.1444C19.3736 37.1435 19.0332 37.0068 18.3523 36.7333L4.14649 31.0287C2.38007 30.3193 1.49686 29.9646 1.48853 29.3436C1.4802 28.7225 2.35358 28.3443 4.10034 27.5878L18.2607 21.4553C18.9855 21.1415 19.3479 20.9845 19.7315 20.9834C20.1151 20.9824 20.4783 21.1372 21.2049 21.447L35.5977 27.5835C37.3726 28.3402 38.26 28.7186 38.2517 29.3433C38.2434 29.9681 37.3463 30.3228 35.5519 31.0322Z" fill="white" stroke="white" stroke-width="0.155362"/>
<circle id="Ellipse 5" cx="19.731" cy="16.4683" r="12.1183" fill="#A463F2"/>
<ellipse id="Ellipse 11" cx="20.3206" cy="16.6993" rx="11.5287" ry="11.8873" fill="#7E22ED"/>
<g id="Vector">
<path d="M28.1733 14.1254C28.1414 14.0605 28.1108 13.9943 28.0815 13.9268C28.07 13.899 28.0506 13.8753 28.0259 13.8586C28.0012 13.8419 27.9722 13.833 27.9426 13.833C27.913 13.833 27.884 13.8419 27.8593 13.8586C27.8346 13.8753 27.8153 13.899 27.8037 13.9268C27.5303 14.5685 27.0807 15.1159 26.509 15.503L26.2877 15.6401C26.2647 15.6532 26.2455 15.6724 26.2322 15.6956C26.2188 15.7188 26.2118 15.7452 26.2118 15.7721C26.2118 15.799 26.2188 15.8254 26.2322 15.8486C26.2455 15.8718 26.2647 15.891 26.2877 15.9041L26.509 16.0412C27.0176 16.3899 27.4318 16.8637 27.7132 17.4188L27.805 17.6174C27.8165 17.6452 27.8359 17.6689 27.8606 17.6856C27.8853 17.7023 27.9142 17.7112 27.9439 17.7112C27.9735 17.7112 28.0025 17.7023 28.0272 17.6856C28.0519 17.6689 28.0712 17.6452 28.0828 17.6174C28.3562 16.9757 28.8058 16.4283 29.3775 16.0412L29.5987 15.9041C29.6993 15.8451 29.6993 15.6978 29.5987 15.6401L29.3775 15.503C29.1479 15.3467 28.9392 15.1664 28.7515 14.9622C28.5202 14.7111 28.3275 14.4321 28.1733 14.1254Z" fill="white"/>
<path d="M24.0345 8.7415C23.9935 8.76846 23.961 8.80691 23.9409 8.85223C23.6676 9.48705 23.2911 10.0715 22.8271 10.5784C22.4146 11.0265 21.9373 11.4077 21.4117 11.7086C21.3732 11.7303 21.3411 11.7622 21.3187 11.8008C21.2964 11.8395 21.2846 11.8835 21.2846 11.9284C21.2846 11.9732 21.2964 12.0173 21.3187 12.0559C21.3411 12.0946 21.3732 12.1264 21.4117 12.1481C21.9367 12.4484 22.4136 12.8287 22.8259 13.2758C23.2904 13.783 23.6674 14.3666 23.9409 15.0019C23.9606 15.0477 23.993 15.0866 24.034 15.114C24.0751 15.1413 24.1231 15.1558 24.1721 15.1558C24.2212 15.1558 24.2692 15.1413 24.3102 15.114C24.3513 15.0866 24.3837 15.0477 24.4034 15.0019C24.6767 14.3671 25.0532 13.784 25.5172 13.2771C25.9293 12.8291 26.4062 12.4479 26.9313 12.1469C26.9698 12.1251 27.0019 12.0933 27.0243 12.0546C27.0466 12.016 27.0584 11.972 27.0584 11.9271C27.0584 11.8822 27.0466 11.8382 27.0243 11.7995C27.0019 11.7609 26.9698 11.729 26.9313 11.7073C25.9118 11.124 25.085 10.2454 24.5555 9.18285C24.5019 9.07521 24.4512 8.965 24.4034 8.85223C24.3833 8.80691 24.3508 8.76846 24.3097 8.7415C24.2687 8.71454 24.221 8.7002 24.1721 8.7002C24.1233 8.7002 24.0756 8.71454 24.0345 8.7415Z" fill="white"/>
</g>
<g id="Ellipse 12">
<mask id="path-8-inside-1_616_787" fill="white">
<path d="M27.8098 29.9231C30.7717 28.2131 33.0865 25.5735 34.3953 22.4138C35.7041 19.2541 35.9337 15.7508 35.0486 12.4473C34.1634 9.14376 32.2129 6.22463 29.4996 4.14264C26.7863 2.06064 23.4618 0.932129 20.0417 0.932129C16.6217 0.932129 13.2972 2.06064 10.5839 4.14264C7.87055 6.22464 5.92005 9.14376 5.03488 12.4473C4.1497 15.7508 4.37932 19.2541 5.68812 22.4138C6.99692 25.5735 9.31175 28.2131 12.2736 29.9231L12.3337 29.819C9.3948 28.1222 7.09789 25.503 5.79922 22.3678C4.50055 19.2325 4.27271 15.7564 5.15103 12.4784C6.02936 9.20046 7.96476 6.30392 10.6571 4.23804C13.3494 2.17216 16.6481 1.05238 20.0417 1.05238C23.4353 1.05238 26.7341 2.17216 29.4264 4.23804C32.1187 6.30392 34.0541 9.20046 34.9324 12.4784C35.8107 15.7564 35.5829 19.2325 34.2842 22.3678C32.9855 25.503 30.6886 28.1222 27.7497 29.819L27.8098 29.9231Z"/>
</mask>
<path d="M27.8098 29.9231C30.7717 28.2131 33.0865 25.5735 34.3953 22.4138C35.7041 19.2541 35.9337 15.7508 35.0486 12.4473C34.1634 9.14376 32.2129 6.22463 29.4996 4.14264C26.7863 2.06064 23.4618 0.932129 20.0417 0.932129C16.6217 0.932129 13.2972 2.06064 10.5839 4.14264C7.87055 6.22464 5.92005 9.14376 5.03488 12.4473C4.1497 15.7508 4.37932 19.2541 5.68812 22.4138C6.99692 25.5735 9.31175 28.2131 12.2736 29.9231L12.3337 29.819C9.3948 28.1222 7.09789 25.503 5.79922 22.3678C4.50055 19.2325 4.27271 15.7564 5.15103 12.4784C6.02936 9.20046 7.96476 6.30392 10.6571 4.23804C13.3494 2.17216 16.6481 1.05238 20.0417 1.05238C23.4353 1.05238 26.7341 2.17216 29.4264 4.23804C32.1187 6.30392 34.0541 9.20046 34.9324 12.4784C35.8107 15.7564 35.5829 19.2325 34.2842 22.3678C32.9855 25.503 30.6886 28.1222 27.7497 29.819L27.8098 29.9231Z" stroke="white" stroke-width="9.01101" stroke-dasharray="0.12 0.47" mask="url(#path-8-inside-1_616_787)"/>
</g>
<circle id="Ellipse 7" cx="19.731" cy="0.932173" r="0.932173" fill="white"/>
<circle id="Ellipse 8" cx="4.81621" cy="17.7112" r="0.932173" fill="white"/>
<circle id="Ellipse 9" cx="35.5779" cy="17.7112" r="0.932173" fill="white"/>
<g id="Ellipse 10" filter="url(#filter0_f_616_787)">
<ellipse cx="19.731" cy="31.537" rx="5.17464" ry="1.81112" fill="#8001FF"/>
</g>
</g>
<defs>
<filter id="filter0_f_616_787" x="11.4491" y="26.6186" width="16.5638" height="9.8368" filterUnits="userSpaceOnUse" color-interpolation-filters="sRGB">
<feFlood flood-opacity="0" result="BackgroundImageFix"/>
<feBlend mode="normal" in="SourceGraphic" in2="BackgroundImageFix" result="shape"/>
<feGaussianBlur stdDeviation="1.55362" result="effect1_foregroundBlur_616_787"/>
</filter>
</defs>
</svg>
